<?xml version="1.0" encoding="utf-8"?>
<!-- Generator: Adobe Illustrator 18.0.0, SVG Export Plug-In . SVG Version: 6.00 Build 0)  -->
<!DOCTYPE svg PUBLIC "-//W3C//DTD SVG 1.1//EN" "http://www.w3.org/Graphics/SVG/1.1/DTD/svg11.dtd">
<svg version="1.1" id="ecommerce_1_" xmlns="http://www.w3.org/2000/svg" xmlns:xlink="http://www.w3.org/1999/xlink" x="0px"
	 y="0px" viewBox="0 0 115 115" style="enable-background:new 0 0 115 115;" xml:space="preserve">
<style type="text/css">
	.st0{fill:#FFEEAD;}
	.st1{fill:#C9B77D;}
	.st2{fill:#99734A;}
	.st3{fill:#FF6F69;}
	.st4{fill:#96CEB4;}
	.st5{fill:none;}
	.st6{fill:#AA9865;}
	.st7{fill:#71A58A;}
	.st8{fill:#FFCC5C;}
	.st9{fill:#825E3B;}
	.st10{fill:#639376;}
	.st11{fill:#E05858;}
	.st12{fill:#C1821E;}
	.st13{fill:#D6A041;}
	.st14{fill:#B28559;}
	.st15{fill:#BF4343;}
	.st16{fill:#D3C089;}
	.st17{fill:#7C5C3C;}
	.st18{fill:#FDCC5C;}
	.st19{fill:#FFFFFF;}
</style>
<g id="online_shop_1_">
	<g>
		<g>
			<g>
				<g>
					<rect x="8.228" y="103.448" class="st4" width="49.147" height="5.171"/>
				</g>
				<g>
					<circle class="st4" cx="21.97" cy="93.126" r="8.228"/>
				</g>
				<g>
					<circle class="st4" cx="21.97" cy="100.391" r="8.228"/>
				</g>
				<g>
					<circle class="st4" cx="8.228" cy="100.391" r="8.228"/>
				</g>
			</g>
			<g>
				<g>
					<rect x="57.625" y="103.448" class="st4" width="49.146" height="5.171"/>
				</g>
				<g>
					<circle class="st4" cx="93.031" cy="93.126" r="8.228"/>
				</g>
				<g>
					<circle class="st4" cx="93.031" cy="100.391" r="8.228"/>
				</g>
				<g>
					<circle class="st4" cx="106.772" cy="100.391" r="8.228"/>
				</g>
			</g>
		</g>
		<g>
			<g>
				<path class="st2" d="M32.383,31.121c-0.926,0-1.677,0.751-1.677,1.677v7.452c0,0.926,0.751,1.677,1.677,1.677
					c0.926,0,1.677-0.751,1.677-1.677v-7.452C34.06,31.871,33.309,31.121,32.383,31.121z"/>
			</g>
			<g>
				<path class="st2" d="M83.563,31.121c-0.926,0-1.677,0.751-1.677,1.677v7.452c0,0.926,0.751,1.677,1.677,1.677
					c0.926,0,1.677-0.751,1.677-1.677v-7.452C85.239,31.871,84.489,31.121,83.563,31.121z"/>
			</g>
			<g>
				<path class="st3" d="M93.466,68.738c-0.004-5.113-4.152-9.255-9.265-9.251l-51.174,0.039c-5.113,0.004-9.255,4.152-9.251,9.265
					l0.023,30.595c0.004,5.113,4.152,9.255,9.266,9.251l51.174-0.039c5.113-0.004,9.255-4.152,9.251-9.265L93.466,68.738z"/>
			</g>
			<g>
				<path class="st11" d="M93.466,68.738c-0.004-5.113-4.152-9.255-9.265-9.251l-51.174,0.039c-5.113,0.004-9.255,4.152-9.251,9.265
					l0.007,8.837c0.441,0.091,0.898,0.14,1.367,0.14h2.197c3.709,0,6.715-3.006,6.715-6.715c0,3.709,3.007,6.715,6.715,6.715h2.197
					c3.709,0,6.715-3.006,6.715-6.715c0,3.709,3.006,6.715,6.715,6.715h2.197c3.709,0,6.715-3.006,6.715-6.715
					c0,3.709,3.006,6.715,6.715,6.715h2.197c3.709,0,6.715-3.006,6.715-6.715c0,3.709,3.006,6.715,6.715,6.715h2.197
					c1.336,0,2.574-0.401,3.62-1.074L93.466,68.738z"/>
			</g>
			<g>
				<g>
					<path class="st4" d="M22.2,40.7c-2.081,0-3.767,1.687-3.767,3.767v17.27H34.06V40.7H22.2z"/>
				</g>
				<g>
					<rect x="34.06" y="40.7" class="st0" width="15.627" height="21.037"/>
				</g>
				<g>
					<rect x="49.687" y="40.7" class="st4" width="15.627" height="21.037"/>
				</g>
				<g>
					<rect x="65.313" y="40.7" class="st0" width="15.627" height="21.037"/>
				</g>
				<g>
					<path class="st4" d="M92.8,40.7H80.94v21.037h15.627v-17.27C96.567,42.387,94.88,40.7,92.8,40.7z"/>
				</g>
				<g>
					<path class="st7" d="M18.433,61.737v4.313c0,3.709,3.006,6.715,6.715,6.715h2.197c3.709,0,6.715-3.006,6.715-6.715v-4.313
						H18.433z"/>
				</g>
				<g>
					<path class="st1" d="M34.06,61.737v4.313c0,3.709,3.006,6.715,6.715,6.715h2.197c3.709,0,6.715-3.006,6.715-6.715v-4.313H34.06
						z"/>
				</g>
				<g>
					<path class="st7" d="M49.687,61.737v4.313c0,3.709,3.006,6.715,6.715,6.715h2.197c3.709,0,6.715-3.006,6.715-6.715v-4.313
						H49.687z"/>
				</g>
				<g>
					<path class="st1" d="M65.313,61.737v4.313c0,3.709,3.006,6.715,6.715,6.715h2.197c3.709,0,6.715-3.006,6.715-6.715v-4.313
						H65.313z"/>
				</g>
				<g>
					<path class="st7" d="M80.94,61.737v4.313c0,3.709,3.006,6.715,6.715,6.715h2.197c3.709,0,6.715-3.006,6.715-6.715v-4.313H80.94
						z"/>
				</g>
			</g>
			<g>
				<path class="st0" d="M50.982,81.792h-8.003c-2.499,0-4.525,2.026-4.525,4.525v22.301h17.054V86.318
					C55.507,83.818,53.481,81.792,50.982,81.792z"/>
			</g>
			<g>
				<path class="st7" d="M49.476,84.196h-4.992c-1.885,0-3.413,1.528-3.413,3.413v21.01h11.817v-21.01
					C52.889,85.724,51.361,84.196,49.476,84.196z"/>
			</g>
			<g>
				<path class="st0" d="M82.317,82.669H67.402c-2.413,0-4.368,1.956-4.368,4.368v11.207c0,2.413,1.956,4.368,4.368,4.368h14.915
					c2.413,0,4.368-1.956,4.368-4.368V87.037C86.685,84.625,84.729,82.669,82.317,82.669z"/>
			</g>
			<g>
				<path class="st7" d="M81.021,84.763H68.697c-1.939,0-3.512,1.572-3.512,3.512v8.733c0,1.939,1.572,3.512,3.512,3.512h12.323
					c1.939,0,3.512-1.572,3.512-3.512v-8.733C84.532,86.335,82.96,84.763,81.021,84.763z"/>
			</g>
			<g>
				<path class="st4" d="M81.047,84.763H68.671c-1.098,0-2.066,0.526-2.705,1.332l17.459,13.46c0.678-0.646,1.108-1.557,1.108-2.575
					v-8.68C84.532,86.347,82.972,84.763,81.047,84.763z"/>
			</g>
			<g>
				<path class="st8" d="M84.714,6.362H30.286c-3.217,0-5.826,2.608-5.826,5.826v16.76c0,3.217,2.608,5.826,5.826,5.826h54.428
					c3.217,0,5.826-2.608,5.826-5.826v-16.76C90.539,8.97,87.931,6.362,84.714,6.362z"/>
			</g>
			<g>
				<path class="st0" d="M81.482,10.014H33.519c-2.583,0-4.676,2.094-4.676,4.676v11.754c0,2.583,2.094,4.676,4.676,4.676h47.963
					c2.583,0,4.676-2.094,4.676-4.676V14.69C86.158,12.107,84.064,10.014,81.482,10.014z"/>
			</g>
			<g>
				<rect x="73.929" y="84.063" class="st0" width="1.985" height="17.183"/>
			</g>
			<g>
				<path class="st3" d="M77.347,16.015h-37.57c-0.728,0-1.323,0.595-1.323,1.323c0,0.728,0.595,1.323,1.323,1.323h37.57
					c0.728,0,1.323-0.595,1.323-1.323C78.67,16.61,78.075,16.015,77.347,16.015z"/>
			</g>
			<g>
				<path class="st3" d="M77.347,22.631h-37.57c-0.728,0-1.323,0.595-1.323,1.323c0,0.728,0.595,1.323,1.323,1.323h37.57
					c0.728,0,1.323-0.595,1.323-1.323C78.67,23.226,78.075,22.631,77.347,22.631z"/>
			</g>
		</g>
	</g>
	<g>
		<circle class="st0" cx="50.306" cy="96.079" r="1.387"/>
	</g>
</g>
</svg>
